<?xml version="1.0" encoding="UTF-8"?>
<svg width="38px" height="38px" viewBox="0 0 38 38" version="1.1" xmlns="http://www.w3.org/2000/svg" xmlns:xlink="http://www.w3.org/1999/xlink">
    <!-- Generator: Sketch 52.6 (67491) - http://www.bohemiancoding.com/sketch -->
    <title>Group 23</title>
    <desc>Created with Sketch.</desc>
    <g id="Page-1" stroke="none" stroke-width="1" fill="none" fill-rule="evenodd">
        <g id="Sales-Page" transform="translate(-822.000000, -8028.000000)">
            <g id="Group-30" transform="translate(0.000000, 7854.000000)">
                <g id="Group-25" transform="translate(575.000000, 174.000000)">
                    <g id="Group-24-Copy" transform="translate(247.000000, 0.000000)">
                        <g id="Group-23">
                            <circle id="Oval" fill="#B9D9F9" opacity="0.200000003" cx="19" cy="19" r="19"></circle>
                            <g id="ic-mail-24px" transform="translate(9.000000, 11.000000)" fill="#0075E5" fill-rule="nonzero">
                                <path d="M18,0 L2,0 C0.9,0 0.01,0.9 0.01,2 L0,14 C0,15.1 0.9,16 2,16 L18,16 C19.1,16 20,15.1 20,14 L20,2 C20,0.9 19.1,0 18,0 Z M18,4 L10,9 L2,4 L2,2 L10,7 L18,2 L18,4 Z" id="Shape"></path>
                            </g>
                        </g>
                    </g>
                </g>
            </g>
        </g>
    </g>
</svg>